<svg width="1000" height="1000" viewBox="0 0 1000 1000" fill="none" xmlns="http://www.w3.org/2000/svg">
<circle cx="500" cy="500.005" r="500" fill="white"/>
<path d="M742.58 279.229C697.964 258.759 650.12 243.679 600.097 235.041C599.186 234.874 598.276 235.291 597.807 236.124C591.654 247.067 584.838 261.342 580.065 272.563C526.262 264.509 472.735 264.509 420.034 272.563C415.261 261.093 408.197 247.067 402.017 236.124C401.547 235.319 400.637 234.902 399.726 235.041C349.731 243.651 301.887 258.732 257.244 279.229C256.857 279.395 256.526 279.673 256.306 280.034C165.557 415.597 140.697 547.827 152.893 678.419C152.948 679.057 153.307 679.669 153.803 680.057C213.677 724.022 271.675 750.713 328.596 768.404C329.507 768.682 330.472 768.349 331.052 767.599C344.516 749.213 356.519 729.828 366.81 709.441C367.417 708.247 366.837 706.831 365.596 706.358C346.558 699.137 328.43 690.333 310.992 680.335C309.613 679.53 309.502 677.557 310.771 676.613C314.441 673.863 318.111 671.002 321.615 668.114C322.249 667.586 323.133 667.475 323.878 667.808C438.437 720.106 562.462 720.106 675.669 667.808C676.415 667.447 677.298 667.559 677.96 668.086C681.465 670.975 685.134 673.863 688.831 676.613C690.1 677.557 690.017 679.53 688.638 680.335C671.2 690.527 653.072 699.137 634.007 706.331C632.765 706.803 632.213 708.247 632.821 709.441C643.332 729.799 655.335 749.185 668.551 767.571C669.103 768.349 670.096 768.682 671.007 768.404C728.204 750.713 786.201 724.022 846.075 680.057C846.6 679.669 846.931 679.085 846.986 678.446C861.581 527.468 822.539 396.322 743.49 280.062C743.296 279.673 742.966 279.395 742.58 279.229ZM383.917 598.902C349.427 598.902 321.008 567.241 321.008 528.358C321.008 489.474 348.876 457.813 383.917 457.813C419.234 457.813 447.378 489.752 446.826 528.358C446.826 567.241 418.958 598.902 383.917 598.902ZM616.514 598.902C582.024 598.902 553.605 567.241 553.605 528.358C553.605 489.474 581.472 457.813 616.514 457.813C651.831 457.813 679.974 489.752 679.423 528.358C679.423 567.241 651.831 598.902 616.514 598.902Z" fill="#502379"/>
</svg>
