<svg width="1000" height="1000" viewBox="0 0 1000 1000" fill="none" xmlns="http://www.w3.org/2000/svg">
<circle cx="500" cy="500" r="500" fill="white"/>
<path d="M500 234.583C586.667 234.583 597.5 234.583 630 237.292C719.375 240 760 283.333 762.708 370C765.417 405.208 765.417 413.333 765.417 500C765.417 586.667 765.417 597.5 762.708 630C760 716.667 716.667 760 630 762.708C594.792 765.417 586.667 765.417 500 765.417C413.333 765.417 402.5 765.417 370 762.708C280.625 760 240 716.667 237.292 630C231.875 597.5 231.875 586.667 231.875 500C231.875 413.333 231.875 402.5 234.583 370C237.292 283.333 280.625 240 367.292 237.292C402.5 234.583 413.333 234.583 500 234.583ZM500 175C410.625 175 399.792 175 367.292 177.708C248.125 183.125 183.125 248.125 177.708 367.292C175 402.5 175 413.333 175 500C175 586.667 175 600.208 177.708 632.708C183.125 751.875 248.125 816.875 367.292 822.292C402.5 825 413.333 825 500 825C589.375 825 600.208 825 632.708 822.292C751.875 816.875 816.875 751.875 822.292 632.708C825 597.5 825 586.667 825 500C825 413.333 825 399.792 822.292 367.292C816.875 248.125 751.875 183.125 632.708 177.708C597.5 175 586.667 175 500 175ZM500 332.083C407.917 332.083 332.083 407.917 332.083 500C332.083 592.083 407.917 667.917 500 667.917C592.083 667.917 665.208 592.083 665.208 500C665.208 407.917 592.083 332.083 500 332.083ZM500 608.333C440.417 608.333 391.667 559.583 391.667 500C391.667 440.417 440.417 391.667 500 391.667C559.583 391.667 608.333 440.417 608.333 500C608.333 559.583 559.583 608.333 500 608.333ZM673.333 288.75C651.667 288.75 635.417 305 635.417 326.667C635.417 348.333 651.667 364.583 673.333 364.583C695 364.583 711.25 348.333 711.25 326.667C711.25 305 695 288.75 673.333 288.75Z" fill="#502379"/>
</svg>
