<svg width="1000" height="1000" viewBox="0 0 1000 1000" fill="none" xmlns="http://www.w3.org/2000/svg">
<g clip-path="url(#clip0_1947_5778)">
<circle cx="500" cy="500" r="500" fill="white"/>
<path d="M649.093 402.684C694.291 434.976 749.66 453.976 809.462 453.976V338.959C798.145 338.961 786.856 337.781 775.783 335.437V425.972C715.986 425.972 660.624 406.972 615.414 374.682V609.399C615.414 726.817 520.18 821.996 402.709 821.996C358.878 821.996 318.139 808.752 284.297 786.038C322.922 825.511 376.788 849.998 436.381 849.998C553.858 849.998 649.097 754.819 649.097 637.396V402.684H649.093V402.684ZM690.639 286.645C667.54 261.422 652.374 228.827 649.093 192.792V177.998H617.177C625.211 223.799 652.612 262.929 690.639 286.645ZM358.597 695.935C345.692 679.022 338.718 658.333 338.749 637.06C338.749 583.358 382.308 539.815 436.049 539.815C446.065 539.813 456.02 541.345 465.564 544.372V426.784C454.41 425.256 443.153 424.607 431.9 424.845V516.37C422.348 513.343 412.388 511.806 402.37 511.815C348.63 511.815 305.072 555.353 305.072 609.063C305.072 647.04 326.845 679.918 358.597 695.935Z" fill="#FF004F"/>
<path d="M615.413 374.679C660.623 406.969 715.985 425.97 775.782 425.97V335.434C742.404 328.328 712.855 310.894 690.638 286.645C652.608 262.926 625.209 223.797 617.176 177.998H533.343V637.392C533.153 690.947 489.668 734.312 436.043 734.312C404.442 734.312 376.368 719.257 358.588 695.935C326.839 679.918 305.066 647.037 305.066 609.065C305.066 555.361 348.623 511.818 402.364 511.818C412.661 511.818 422.585 513.42 431.894 516.373V424.848C316.487 427.231 223.672 521.48 223.672 637.394C223.672 695.257 246.785 747.713 284.298 786.04C318.14 808.752 358.879 821.999 402.71 821.999C520.183 821.999 615.415 726.815 615.415 609.399V374.679H615.413Z" fill="#502379"/>
<path d="M775.787 335.436V310.956C745.687 311.001 716.179 302.576 690.642 286.644C713.248 311.381 743.016 328.438 775.787 335.436ZM617.18 177.999C616.414 173.622 615.825 169.216 615.417 164.794V150H499.667V609.398C499.482 662.947 455.999 706.312 402.369 706.312C386.624 706.312 371.758 702.576 358.593 695.939C376.373 719.258 404.447 734.311 436.047 734.311C489.668 734.311 533.16 690.951 533.348 637.396V177.999H617.18ZM431.903 424.849V398.788C422.231 397.467 412.48 396.804 402.717 396.809C285.234 396.806 190 491.99 190 609.398C190 683.007 227.429 747.878 284.305 786.037C246.792 747.712 223.679 695.254 223.679 637.393C223.679 521.482 316.491 427.232 431.903 424.849Z" fill="#00F2EA"/>
</g>
<defs>
<clipPath id="clip0_1947_5778">
<rect width="1000" height="1000" fill="white"/>
</clipPath>
</defs>
</svg>
