<svg width="1000" height="1000" viewBox="0 0 1000 1000" fill="none" xmlns="http://www.w3.org/2000/svg">
<circle cx="500" cy="500.005" r="500" fill="white"/>
<path d="M825 297.679C801.786 309.286 776.25 316.25 748.393 318.571C776.25 302.322 797.143 276.788 806.429 244.29C780.893 260.539 753.036 269.824 722.857 276.788C699.643 251.254 664.821 235.005 625.357 235.005C539.464 235.005 476.786 313.928 495.357 397.494C386.25 392.852 286.429 339.462 221.429 258.218C186.607 318.571 202.857 395.173 263.214 434.635C242.321 434.635 221.429 427.671 202.857 418.386C200.536 478.739 244.643 536.771 309.643 550.699C291.071 555.341 270.179 557.663 249.286 553.02C265.536 606.409 314.286 643.55 372.321 645.871C316.607 689.975 246.964 708.546 175 701.582C233.036 738.722 302.679 761.935 379.286 761.935C625.357 761.935 764.643 553.02 755.357 367.318C785.536 348.747 808.75 325.535 825 297.679Z" fill="#502379"/>
</svg>
