<svg xmlns="http://www.w3.org/2000/svg" viewBox="0 0 77.71 74.74"><defs><style>.cls-1{fill:#572982;}</style></defs><g id="Ebene_2" data-name="Ebene 2"><g id="Ebene_1-2" data-name="Ebene 1"><path class="cls-1" d="M76.07,5.22c-16.48,0-27.54,11.07-27.54,27.55v3.71C44.42,29.2,36.72,24.8,26.85,24.8H25.21v1.64c0,14.36,9.31,24.16,23.32,24.88V64.45a7,7,0,0,1-13.47,2.73l-1-2.25a10.56,10.56,0,0,0-9.57-6.45v-2a6.3,6.3,0,0,0-6.3-6.3H8.4v4.55H2.52V58H8.4v4.18H2.52v3.28H8.4V70h9.84a6.31,6.31,0,0,0,6.3-6.3v-2a7.28,7.28,0,0,1,6.55,4.44L32,68.45a10.29,10.29,0,0,0,19.77-4V34.37c15.56-.72,25.9-11.59,25.9-27.51V5.22ZM28.54,28.13c11.47.69,19.24,8.46,19.94,19.93C37,47.37,29.24,39.6,28.54,28.13ZM21.26,63.71a3,3,0,0,1-3,3H11.68V53.45h6.56a3,3,0,0,1,3,3ZM51.85,31.08c.7-13,9.51-21.83,22.53-22.53C73.69,21.57,64.88,30.38,51.85,31.08Z"/><polygon class="cls-1" points="30.28 12.95 34.49 9.91 38.7 12.95 37.09 8.03 41.38 4.98 36.1 4.98 34.49 0 32.88 4.98 27.6 4.98 31.88 8.03 30.28 12.95"/><polygon class="cls-1" points="12.11 21.38 16.32 18.34 20.52 21.38 18.92 16.46 23.2 13.41 17.93 13.41 16.31 8.42 14.7 13.41 9.42 13.41 13.71 16.46 12.11 21.38"/><polygon class="cls-1" points="2.68 38.55 6.89 35.51 11.1 38.55 9.5 33.63 13.78 30.58 8.5 30.58 6.89 25.6 5.28 30.59 0 30.58 4.28 33.63 2.68 38.55"/></g></g></svg>