<svg xmlns="http://www.w3.org/2000/svg" viewBox="0 0 66.01 84"><defs><style>.cls-1{fill:#572982;}</style></defs><g id="Ebene_2" data-name="Ebene 2"><g id="Ebene_1-2" data-name="Ebene 1"><path class="cls-1" d="M64.28,38.26h0a6.12,6.12,0,0,0-4.57-1.85,2.3,2.3,0,0,0,0-.26,6.15,6.15,0,0,0-6-6.25,2.3,2.3,0,0,0-.26,0,2.3,2.3,0,0,0,0-.26,6.13,6.13,0,0,0-6-6.25l-.25,0a2.13,2.13,0,0,1,0-.25A6.15,6.15,0,0,0,36.8,18.65l-9.16,8.69h0l-7.88,7.48a11,11,0,0,0-2.43,13L24.79,62.7V84h3.28V61.92L20.27,46.3A7.67,7.67,0,0,1,22,37.22L28.59,31l9.25,10.16a.75.75,0,0,1,.24.63.8.8,0,0,1-.35.58,5.63,5.63,0,0,1-7-.63l-3.5-3.38L25,40.68l3.5,3.38a8.93,8.93,0,0,0,7.23,2.41,5.23,5.23,0,0,0-.11,1,6.13,6.13,0,0,0,6,6.25h.25a6.13,6.13,0,0,0,6,6.5H48a6.07,6.07,0,0,0,4.27-1.73l6.09-5.88a10.89,10.89,0,0,1-3.12,6.83l-8,8V84h3.28V68.72l7-7a14,14,0,0,0,4.12-9.94V49.35L64.14,47A6.15,6.15,0,0,0,64.28,38.26ZM39.07,21a2.87,2.87,0,0,1,4.86,2.11,2.91,2.91,0,0,1-.88,2L34.91,33,31,28.7Zm-2,14.43,8.22-8a3,3,0,0,1,2.05-.8,2.83,2.83,0,0,1,2,.87,2.87,2.87,0,0,1-.07,4.06l-8.44,8.16a3.51,3.51,0,0,0-.69-1ZM41.66,50.4a2.87,2.87,0,0,1-1.94-4.93L51.6,34a2.85,2.85,0,0,1,2-.81h0a2.89,2.89,0,0,1,2,.88,2.85,2.85,0,0,1,.8,2,2.82,2.82,0,0,1-.87,2L43.71,49.6A2.83,2.83,0,0,1,41.66,50.4Zm20.2-5.8L50,56.08a2.94,2.94,0,0,1-2,.81A2.87,2.87,0,0,1,46,52L57.87,40.47a2.82,2.82,0,0,1,2-.8,2.87,2.87,0,0,1,2,4.93Z"/><polygon class="cls-1" points="30.28 12.95 34.49 9.91 38.7 12.95 37.09 8.03 41.38 4.98 36.1 4.98 34.49 0 32.88 4.98 27.6 4.98 31.88 8.03 30.28 12.95"/><polygon class="cls-1" points="12.11 21.38 16.32 18.34 20.52 21.38 18.92 16.46 23.2 13.41 17.93 13.41 16.31 8.42 14.7 13.41 9.42 13.41 13.71 16.46 12.11 21.38"/><polygon class="cls-1" points="8.5 30.58 6.89 25.6 5.28 30.59 0 30.58 4.28 33.63 2.68 38.55 6.89 35.51 11.1 38.55 9.5 33.63 13.78 30.58 8.5 30.58"/></g></g></svg>