<svg xmlns="http://www.w3.org/2000/svg" viewBox="0 0 88.51 86.65"><defs><style>.cls-1{fill:#572982;}</style></defs><g id="Ebene_2" data-name="Ebene 2"><g id="Ebene_1-2" data-name="Ebene 1"><path class="cls-1" d="M47,58.63A13.52,13.52,0,0,1,33.47,45.12H30.19A16.79,16.79,0,1,0,47,28.33v3.28a13.51,13.51,0,1,1,0,27Z"/><path class="cls-1" d="M88.51,54.58V35.67l-12-1.08a30.69,30.69,0,0,0-1.2-2.91L83,22.45,69.66,9.08l-9.24,7.71q-1.41-.66-2.91-1.2l-1.07-12H47V6.88h6.46l1,11.16,1,.33a28.28,28.28,0,0,1,4.42,1.82l1,.51,8.59-7.18,9.13,9.13-7.18,8.59.5,1a27.76,27.76,0,0,1,1.83,4.42l.32,1,11.17,1V51.58l-11.17,1-.32,1A28.15,28.15,0,0,1,71.91,58l-.5,1,7.18,8.59-9.13,9.13-8.59-7.18-1,.5a27.19,27.19,0,0,1-4.42,1.82l-1,.33-1,11.17H40.53l-1-11.17-1-.33a27.72,27.72,0,0,1-4.42-1.82l-1-.5-8.59,7.18L15.38,67.6,22.56,59l-.5-1a27.76,27.76,0,0,1-1.83-4.42l-.33-1-11.16-1V45.12H5.46v9.46l12,1.07a31.1,31.1,0,0,0,1.19,2.91L10.94,67.8,24.31,81.17l9.23-7.72a30.69,30.69,0,0,0,2.91,1.2l1.08,12H56.44l1.07-12a28.66,28.66,0,0,0,2.91-1.2l9.24,7.72L83,67.8l-7.72-9.24a28.66,28.66,0,0,0,1.2-2.91Z"/><polygon class="cls-1" points="30.28 12.95 34.49 9.9 38.7 12.95 37.09 8.03 41.38 4.98 36.1 4.98 34.49 0 32.88 4.98 27.6 4.98 31.88 8.03 30.28 12.95"/><polygon class="cls-1" points="12.11 21.38 16.32 18.34 20.52 21.38 18.92 16.46 23.2 13.41 17.93 13.41 16.31 8.42 14.7 13.41 9.42 13.41 13.71 16.46 12.11 21.38"/><polygon class="cls-1" points="6.89 35.51 11.1 38.55 9.5 33.63 13.78 30.58 8.5 30.58 6.89 25.6 5.28 30.59 0 30.58 4.28 33.63 2.68 38.55 6.89 35.51"/></g></g></svg>