<svg xmlns="http://www.w3.org/2000/svg" viewBox="0 0 81.22 57.32"><defs><style>.cls-1{fill:#572982;}</style></defs><g id="Ebene_2" data-name="Ebene 2"><g id="Ebene_1-2" data-name="Ebene 1"><path class="cls-1" d="M77.38,7.06H67.26a3.84,3.84,0,0,0-3.84,3.84v1.31a3.55,3.55,0,0,0-.57-.06H52.73A3.86,3.86,0,0,0,48.89,16v4.36a5.07,5.07,0,0,0-.56-.05H38.21a3.84,3.84,0,0,0-3.84,3.84V31a5.07,5.07,0,0,0-.56,0H23.69a3.84,3.84,0,0,0-3.84,3.84v16H81.22V10.9A3.84,3.84,0,0,0,77.38,7.06Zm-43,40.42H23.13V34.76a.56.56,0,0,1,.56-.56H33.81a.56.56,0,0,1,.56.56Zm14.52,0H37.65V24.15a.56.56,0,0,1,.56-.56H48.33a.56.56,0,0,1,.56.56Zm14.53,0H52.17V16a.57.57,0,0,1,.56-.57H62.85a.58.58,0,0,1,.57.57Zm14.52,0H66.7V10.9a.56.56,0,0,1,.56-.56H77.38a.56.56,0,0,1,.56.56Z"/><rect class="cls-1" x="19.85" y="54.04" width="61.37" height="3.28"/><polygon class="cls-1" points="30.28 12.95 34.49 9.9 38.7 12.95 37.09 8.03 41.38 4.98 36.1 4.98 34.49 0 32.88 4.98 27.6 4.98 31.88 8.03 30.28 12.95"/><polygon class="cls-1" points="18.92 16.46 23.2 13.41 17.93 13.41 16.31 8.42 14.7 13.41 9.42 13.41 13.71 16.46 12.11 21.38 16.32 18.34 20.52 21.38 18.92 16.46"/><polygon class="cls-1" points="8.5 30.58 6.89 25.6 5.28 30.59 0 30.58 4.28 33.63 2.68 38.55 6.89 35.51 11.1 38.55 9.5 33.63 13.78 30.58 8.5 30.58"/></g></g></svg>