<svg xmlns="http://www.w3.org/2000/svg" viewBox="0 0 89.76 69.8"><defs><style>.cls-1{fill:#572982;}</style></defs><g id="Ebene_2" data-name="Ebene 2"><g id="Ebene_1-2" data-name="Ebene 1"><path class="cls-1" d="M74.25,16.93,57.08,19.08a6.86,6.86,0,0,0-4.49-3.59V6.43H49.31v9.06a6.85,6.85,0,0,0-5.06,5.2L27.52,22.78,12.14,53v.4a16.45,16.45,0,1,0,32.9,0V53L31.11,25.64,44.35,24A6.85,6.85,0,0,0,57.8,22.3l12.64-1.58L56.86,47.36v.39a16.45,16.45,0,0,0,32.9,0v-.39ZM28.59,66.52A13.19,13.19,0,0,1,15.53,55H41.65A13.19,13.19,0,0,1,28.59,66.52ZM40.72,51.71H16.46l12.13-23.8ZM51,25.72a3.58,3.58,0,1,1,3.58-3.58A3.59,3.59,0,0,1,51,25.72Zm22.36-3.4L85.44,46.11H61.18Zm0,38.6A13.19,13.19,0,0,1,60.25,49.39H86.37A13.19,13.19,0,0,1,73.31,60.92Z"/><polygon class="cls-1" points="30.28 12.95 34.49 9.9 38.7 12.95 37.09 8.03 41.38 4.98 36.1 4.98 34.49 0 32.88 4.98 27.6 4.98 31.88 8.03 30.28 12.95"/><polygon class="cls-1" points="12.11 21.38 16.32 18.34 20.52 21.38 18.92 16.46 23.2 13.41 17.93 13.41 16.31 8.42 14.7 13.41 9.42 13.41 13.71 16.46 12.11 21.38"/><polygon class="cls-1" points="13.78 30.58 8.5 30.58 6.89 25.6 5.28 30.59 0 30.58 4.28 33.63 2.68 38.55 6.89 35.51 11.1 38.55 9.5 33.63 13.78 30.58"/></g></g></svg>