<svg width="2074" height="864" viewBox="0 0 2074 864" fill="none" xmlns="http://www.w3.org/2000/svg">
<path d="M1589.3 273.185V273.436C1604.9 311.765 1619.92 350.962 1634.25 391.209C1636.45 397.011 1638.47 402.871 1640.63 408.687H1736.8V616.312C1736.8 653.465 1739.35 687.341 1744.45 717.938C1749.55 747.807 1759.38 773.306 1773.95 794.432C1788.52 815.559 1808.55 831.944 1834.05 843.6C1859.54 855.256 1893.04 861.086 1934.56 861.086C1959.33 861.086 1981.18 859.629 2000.12 856.715C2019.06 853.801 2037.27 849.797 2054.75 844.697L2040.55 715.752C2026.71 718.666 2014.33 720.853 2003.4 722.31C1992.47 723.038 1980.09 723.399 1966.25 723.399C1939.3 723.399 1921.46 716.479 1912.71 702.638C1903.97 688.068 1899.6 663.666 1899.6 629.426V408.687H2073.33V273.185H1589.3Z" fill="white"/>
<path d="M1550.2 847.975C1542.91 819.563 1534.54 787.509 1525.06 751.813C1515.59 716.116 1505.4 680.056 1494.47 643.631C1484.28 606.477 1474.08 570.781 1463.88 536.541C1453.68 502.302 1443.85 472.069 1434.38 445.843C1424.18 472.069 1413.25 502.302 1401.6 536.541C1389.94 570.781 1378.29 606.477 1366.64 643.631C1355.71 680.056 1345.15 716.116 1334.95 751.813C1324.75 787.509 1316.01 819.563 1308.73 847.975H1141.56C1174.34 735.057 1209.66 629.789 1247.54 532.17C1286.15 434.551 1324.02 349.315 1361.17 276.465C1352.43 253.882 1344.05 234.212 1336.04 217.457C1328.76 199.973 1320.75 185.403 1312.01 173.747C1303.26 162.091 1293.07 153.349 1281.41 147.521C1269.76 141.693 1255.55 138.779 1238.8 138.779C1229.33 138.779 1219.86 139.508 1210.39 140.965C1200.92 142.422 1190.36 145.336 1178.71 149.707L1150.3 18.5767C1164.14 14.2057 1180.53 10.199 1199.47 6.55646C1218.41 2.18549 1240.62 0 1266.12 0C1290.88 0 1313.46 2.54973 1333.86 7.64921C1354.98 12.7487 1373.92 21.1265 1390.67 32.7824C1408.15 44.4383 1424.18 60.1011 1438.75 79.7706C1453.32 98.7115 1467.16 122.024 1480.27 149.707C1497.02 185.403 1513.77 224.013 1530.53 265.538C1547.28 306.334 1563.3 348.223 1578.6 391.206C1594.63 433.459 1609.56 476.076 1623.4 519.057C1637.97 562.039 1651.44 603.563 1663.83 643.631C1676.21 682.97 1687.5 720.123 1697.7 755.091C1707.9 790.059 1716.64 821.02 1723.92 847.975H1550.2Z" fill="white"/>
<path d="M253.787 861.987C212.038 861.987 170.29 860.522 128.541 857.592C87.5253 855.395 44.6782 849.534 0 840.012L0 101.626C35.1566 95.0331 73.6091 90.2717 115.358 87.3416C157.106 83.679 195.925 81.8477 231.814 81.8477C280.154 81.8477 324.466 85.5103 364.75 92.8355C405.766 99.4283 440.922 111.149 470.22 127.997C499.517 144.845 522.222 167.187 538.335 195.023C555.181 222.126 563.604 255.822 563.604 296.111C563.604 356.911 534.307 404.891 475.713 440.053C524.053 458.366 557.012 483.272 574.591 514.77C592.169 546.269 600.958 581.796 600.958 621.353C600.958 701.198 571.661 761.265 513.067 801.554C455.205 841.843 368.778 861.987 253.787 861.987ZM166.994 520.264L166.994 716.947C179.445 718.412 192.995 719.511 207.644 720.244C222.292 720.976 238.406 721.342 255.984 721.342C307.254 721.342 348.636 714.017 380.131 699.367C411.625 684.716 427.372 657.613 427.372 618.056C427.372 582.895 414.189 557.989 387.821 543.339C361.454 527.956 323.734 520.264 274.661 520.264H166.994ZM166.994 389.508H250.491C303.226 389.508 340.946 382.916 363.651 369.73C386.356 355.812 397.709 333.836 397.709 303.803C397.709 273.037 385.99 251.427 362.552 238.974C339.115 226.521 304.691 220.295 259.28 220.295C244.631 220.295 228.884 220.661 212.038 221.394C195.192 221.394 180.178 222.126 166.994 223.591V389.508Z" fill="white"/>
<path d="M866.444 274.138C738.123 274.681 629.231 357.351 589.43 472.296C606.02 484.791 618.736 498.949 627.565 514.77C645.143 546.269 653.935 581.798 653.935 621.354C653.935 666.206 644.683 704.807 626.194 737.177C679.203 813.059 766.978 862.852 866.444 863.273C1028.5 862.588 1159.67 730.973 1159.67 568.706C1159.67 406.44 1028.5 274.824 866.444 274.138V274.138ZM866.444 422.854C946.96 422.854 1012.25 488.168 1012.25 568.706C1012.25 649.244 946.96 714.558 866.444 714.558C785.928 714.558 720.634 649.244 720.634 568.706C720.634 488.168 785.928 422.854 866.444 422.854Z" fill="white"/>
</svg>
